# Blender 5.2.0 LTS
# www.blender.org
mtllib Untitled.mtl
o Sphere
v 0.000000 1.000000 0.000000
v 0.000000 0.831470 -0.555570
v 0.000000 0.555570 -0.831470
v 0.000000 0.195090 -0.980785
v 0.000000 0.000000 -1.000000
v 0.000000 -0.195090 -0.980785
v 0.000000 -0.555570 -0.831470
v 0.000000 -1.000000 0.000000
v 0.038060 0.980785 -0.191342
v 0.074658 0.923880 -0.375330
v 0.108386 0.831470 -0.544895
v 0.137950 0.707107 -0.693520
v 0.162212 0.555570 -0.815493
v 0.180240 0.382683 -0.906127
v 0.191342 0.195090 -0.961940
v 0.195090 0.000000 -0.980785
v 0.191342 -0.195090 -0.961940
v 0.180240 -0.382683 -0.906127
v 0.162212 -0.555570 -0.815493
v 0.137950 -0.707107 -0.693520
v 0.108386 -0.831470 -0.544895
v 0.074658 -0.923880 -0.375330
v 0.038060 -0.980785 -0.191342
v 0.074658 0.980785 -0.180240
v 0.146447 0.923880 -0.353553
v 0.212608 0.831470 -0.513280
v 0.270598 0.707107 -0.653281
v 0.318190 0.555570 -0.768178
v 0.353553 0.382683 -0.853553
v 0.375330 0.195090 -0.906127
v 0.382683 0.000000 -0.923879
v 0.375330 -0.195090 -0.906127
v 0.353553 -0.382683 -0.853553
v 0.318190 -0.555570 -0.768178
v 0.270598 -0.707107 -0.653281
v 0.212608 -0.831470 -0.513280
v 0.146447 -0.923880 -0.353553
v 0.074658 -0.980785 -0.180240
v 0.108386 0.980785 -0.162212
v 0.212608 0.923880 -0.318190
v 0.308658 0.831470 -0.461940
v 0.392847 0.707107 -0.587938
v 0.461940 0.555570 -0.691342
v 0.513280 0.382683 -0.768178
v 0.544895 0.195090 -0.815493
v 0.555570 0.000000 -0.831469
v 0.544895 -0.195090 -0.815493
v 0.513280 -0.382683 -0.768178
v 0.461940 -0.555570 -0.691342
v 0.392847 -0.707107 -0.587938
v 0.308658 -0.831470 -0.461940
v 0.212608 -0.923880 -0.318190
v 0.108386 -0.980785 -0.162212
v 0.137950 0.980785 -0.137950
v 0.270598 0.923880 -0.270598
v 0.392847 0.831470 -0.392847
v 0.500000 0.707107 -0.500000
v 0.587938 0.555570 -0.587938
v 0.653281 0.382683 -0.653281
v 0.693520 0.195090 -0.693520
v 0.707107 0.000000 -0.707107
v 0.693520 -0.195090 -0.693520
v 0.653281 -0.382683 -0.653281
v 0.587938 -0.555570 -0.587938
v 0.500000 -0.707107 -0.500000
v 0.392847 -0.831470 -0.392847
v 0.270598 -0.923880 -0.270598
v 0.137950 -0.980785 -0.137950
v 0.162212 0.980785 -0.108386
v 0.318190 0.923880 -0.212608
v 0.461940 0.831470 -0.308658
v 0.587938 0.707107 -0.392847
v 0.691342 0.555570 -0.461940
v 0.768178 0.382683 -0.513280
v 0.815493 0.195090 -0.544895
v 0.831470 0.000000 -0.555570
v 0.815493 -0.195090 -0.544895
v 0.768178 -0.382683 -0.513280
v 0.691342 -0.555570 -0.461940
v 0.587938 -0.707107 -0.392847
v 0.461940 -0.831470 -0.308658
v 0.318190 -0.923880 -0.212608
v 0.162212 -0.980785 -0.108386
v 0.180240 0.980785 -0.074658
v 0.353553 0.923880 -0.146447
v 0.513280 0.831470 -0.212607
v 0.653281 0.707107 -0.270598
v 1.003897 0.749368 -0.318190
v 0.905967 0.355984 -0.329954
v 0.943575 0.221789 -0.345532
v 0.923879 0.000000 -0.382683
v 0.906127 -0.195090 -0.375330
v 0.853553 -0.382683 -0.353553
v 0.768178 -0.555570 -0.318190
v 0.653281 -0.707107 -0.270598
v 0.513280 -0.831470 -0.212607
v 0.353553 -0.923880 -0.146447
v 0.180240 -0.980785 -0.074658
v 0.191342 0.980785 -0.038060
v 0.375330 0.923880 -0.074658
v 0.544895 0.831470 -0.108386
v 0.693520 0.707107 -0.137950
v 0.815493 0.555570 -0.162212
v 0.942803 0.355984 -0.208519
v 0.982729 0.221789 -0.216461
v 0.980785 0.000000 -0.195090
v 0.961940 -0.195090 -0.191342
v 0.906127 -0.382683 -0.180240
v 0.815493 -0.555570 -0.162212
v 0.693520 -0.707107 -0.137950
v 0.544895 -0.831470 -0.108386
v 0.375330 -0.923880 -0.074658
v 0.191342 -0.980785 -0.038060
v 0.195090 0.980785 0.000000
v 0.382683 0.923880 0.000000
v 0.555570 0.831470 0.000000
v 0.707107 0.707107 -0.000000
v 0.831469 0.555570 0.000000
v 0.923879 0.382683 -0.000000
v 0.980785 0.195090 0.000000
v 1.000000 0.000000 0.000000
v 0.980785 -0.195090 0.000000
v 0.923879 -0.382683 -0.000000
v 0.831469 -0.555570 0.000000
v 0.707107 -0.707107 -0.000000
v 0.555570 -0.831470 0.000000
v 0.382683 -0.923880 0.000000
v 0.195090 -0.980785 0.000000
v 0.191342 0.980785 0.038060
v 0.375330 0.923880 0.074658
v 0.544895 0.831470 0.108386
v 0.693520 0.707107 0.137950
v 0.815493 0.555570 0.162212
v 0.942803 0.355984 0.208519
v 0.982729 0.221789 0.216461
v 0.980785 0.000000 0.195090
v 0.961940 -0.195090 0.191342
v 0.906127 -0.382683 0.180240
v 0.815493 -0.555570 0.162212
v 0.693520 -0.707107 0.137950
v 0.544895 -0.831470 0.108386
v 0.375330 -0.923880 0.074658
v 0.191342 -0.980785 0.038060
v 0.180240 0.980785 0.074658
v 0.353553 0.923880 0.146447
v 0.513280 0.831470 0.212608
v 0.653281 0.707107 0.270598
v 1.003896 0.749368 0.318190
v 0.905967 0.355984 0.329954
v 0.943575 0.221789 0.345532
v 0.923879 0.000000 0.382683
v 0.906127 -0.195090 0.375330
v 0.853553 -0.382683 0.353553
v 0.768178 -0.555570 0.318190
v 0.653281 -0.707107 0.270598
v 0.513280 -0.831470 0.212608
v 0.353553 -0.923880 0.146447
v 0.180240 -0.980785 0.074658
v 0.162212 0.980785 0.108386
v 0.318190 0.923880 0.212608
v 0.461940 0.831470 0.308658
v 0.587938 0.707107 0.392847
v 0.691341 0.555570 0.461940
v 0.768178 0.382683 0.513280
v 0.815493 0.195090 0.544895
v 0.831469 0.000000 0.555570
v 0.815493 -0.195090 0.544895
v 0.768178 -0.382683 0.513280
v 0.691341 -0.555570 0.461940
v 0.587938 -0.707107 0.392847
v 0.461940 -0.831470 0.308658
v 0.318190 -0.923880 0.212608
v 0.162212 -0.980785 0.108386
v 0.137950 0.980785 0.137950
v 0.270598 0.923880 0.270598
v 0.392847 0.831470 0.392847
v 0.500000 0.707107 0.500000
v 0.587938 0.555570 0.587938
v 0.653281 0.382683 0.653281
v 0.693520 0.195090 0.693520
v 0.707106 0.000000 0.707107
v 0.693520 -0.195090 0.693520
v 0.653281 -0.382683 0.653281
v 0.587938 -0.555570 0.587938
v 0.500000 -0.707107 0.500000
v 0.392847 -0.831470 0.392847
v 0.270598 -0.923880 0.270598
v 0.137950 -0.980785 0.137950
v 0.108386 0.980785 0.162212
v 0.212607 0.923880 0.318190
v 0.308658 0.831470 0.461940
v 0.392847 0.707107 0.587938
v 0.461940 0.555570 0.691342
v 0.513280 0.382683 0.768178
v 0.544895 0.195090 0.815493
v 0.555570 0.000000 0.831469
v 0.544895 -0.195090 0.815493
v 0.513280 -0.382683 0.768178
v 0.461940 -0.555570 0.691342
v 0.392847 -0.707107 0.587938
v 0.308658 -0.831470 0.461940
v 0.212607 -0.923880 0.318190
v 0.108386 -0.980785 0.162212
v 0.074658 0.980785 0.180240
v 0.146447 0.923880 0.353553
v 0.212607 0.831470 0.513280
v 0.270598 0.707107 0.653281
v 0.318189 0.555570 0.768178
v 0.353553 0.382683 0.853553
v 0.375330 0.195090 0.906127
v 0.382683 0.000000 0.923879
v 0.375330 -0.195090 0.906127
v 0.353553 -0.382683 0.853553
v 0.318189 -0.555570 0.768178
v 0.270598 -0.707107 0.653281
v 0.212607 -0.831470 0.513280
v 0.146447 -0.923880 0.353553
v 0.074658 -0.980785 0.180240
v 0.038060 0.980785 0.191342
v 0.074658 0.923880 0.375330
v 0.108386 0.831470 0.544895
v 0.137950 0.707107 0.693520
v 0.162212 0.555570 0.815493
v 0.180240 0.382683 0.906127
v 0.191342 0.195090 0.961939
v 0.195090 0.000000 0.980785
v 0.191342 -0.195090 0.961939
v 0.180240 -0.382683 0.906127
v 0.162212 -0.555570 0.815493
v 0.137950 -0.707107 0.693520
v 0.108386 -0.831470 0.544895
v 0.074658 -0.923880 0.375330
v 0.038060 -0.980785 0.191342
v -0.000000 0.980785 0.195090
v -0.000000 0.923880 0.382683
v -0.000000 0.831470 0.555570
v -0.000000 0.707107 0.707107
v -0.000000 0.555570 0.831469
v 0.000000 0.382683 0.923879
v -0.000000 0.195090 0.980785
v -0.000000 0.000000 0.999999
v -0.000000 -0.195090 0.980785
v 0.000000 -0.382683 0.923879
v -0.000000 -0.555570 0.831469
v -0.000000 -0.707107 0.707107
v -0.000000 -0.831470 0.555570
v -0.000000 -0.923880 0.382683
v -0.000000 -0.980785 0.195090
v -0.038060 0.980785 0.191342
v -0.074658 0.923880 0.375330
v -0.108386 0.831470 0.544895
v -0.137950 0.707107 0.693520
v -0.162212 0.555570 0.815493
v -0.180240 0.382683 0.906127
v -0.191342 0.195090 0.961939
v -0.195091 0.000000 0.980785
v -0.191342 -0.195090 0.961939
v -0.180240 -0.382683 0.906127
v -0.162212 -0.555570 0.815493
v -0.137950 -0.707107 0.693520
v -0.108386 -0.831470 0.544895
v -0.074658 -0.923880 0.375330
v -0.038060 -0.980785 0.191342
v -0.074658 0.980785 0.180240
v -0.146447 0.923880 0.353553
v -0.212608 0.831470 0.513280
v -0.270598 0.707107 0.653281
v -0.318190 0.555570 0.768177
v -0.353553 0.382683 0.853553
v -0.375330 0.195090 0.906127
v -0.382683 0.000000 0.923879
v -0.375330 -0.195090 0.906127
v -0.353553 -0.382683 0.853553
v -0.318190 -0.555570 0.768177
v -0.270598 -0.707107 0.653281
v -0.212608 -0.831470 0.513280
v -0.146447 -0.923880 0.353553
v -0.074658 -0.980785 0.180240
v -0.108386 0.980785 0.162212
v -0.212608 0.923880 0.318190
v -0.308658 0.831470 0.461939
v -0.392847 0.707107 0.587938
v -0.461940 0.555570 0.691341
v -0.513280 0.382683 0.768178
v -0.544895 0.195090 0.815493
v -0.555570 0.000000 0.831469
v -0.544895 -0.195090 0.815493
v -0.513280 -0.382683 0.768178
v -0.461940 -0.555570 0.691341
v -0.392847 -0.707107 0.587938
v -0.308658 -0.831470 0.461939
v -0.212608 -0.923880 0.318190
v -0.108386 -0.980785 0.162212
v -0.137950 0.980785 0.137950
v -0.270598 0.923880 0.270598
v -0.392847 0.831470 0.392847
v -0.500000 0.707107 0.500000
v -0.587938 0.555570 0.587937
v -0.653281 0.382683 0.653281
v -0.693520 0.195090 0.693520
v -0.707106 0.000000 0.707106
v -0.693520 -0.195090 0.693520
v -0.653281 -0.382683 0.653281
v -0.587938 -0.555570 0.587937
v -0.500000 -0.707107 0.500000
v -0.392847 -0.831470 0.392847
v -0.270598 -0.923880 0.270598
v -0.137950 -0.980785 0.137950
v -0.162212 0.980785 0.108386
v -0.318190 0.923880 0.212607
v -0.461940 0.831470 0.308658
v -0.587938 0.707107 0.392847
v -0.691341 0.555570 0.461939
v -0.768177 0.382683 0.513280
v -0.815493 0.195090 0.544895
v -0.831469 0.000000 0.555569
v -0.815493 -0.195090 0.544895
v -0.768177 -0.382683 0.513280
v -0.691341 -0.555570 0.461939
v -0.587938 -0.707107 0.392847
v -0.461940 -0.831470 0.308658
v -0.318190 -0.923880 0.212607
v -0.162212 -0.980785 0.108386
v -0.180240 0.980785 0.074658
v -0.353553 0.923880 0.146447
v -0.513280 0.831470 0.212607
v -0.653281 0.707107 0.270598
v -0.768177 0.555570 0.318189
v -0.853553 0.382683 0.353553
v -0.906127 0.195090 0.375330
v -0.923879 0.000000 0.382683
v -0.906127 -0.195090 0.375330
v -0.853553 -0.382683 0.353553
v -0.768177 -0.555570 0.318189
v -0.653281 -0.707107 0.270598
v -0.513280 -0.831470 0.212607
v -0.353553 -0.923880 0.146447
v -0.180240 -0.980785 0.074658
v -0.191342 0.980785 0.038060
v -0.375330 0.923880 0.074658
v -0.544895 0.831470 0.108386
v -0.693520 0.707107 0.137950
v -0.815493 0.555570 0.162211
v -0.906127 0.382683 0.180240
v -0.961939 0.195090 0.191341
v -0.980784 0.000000 0.195090
v -0.961939 -0.195090 0.191341
v -0.906127 -0.382683 0.180240
v -0.815493 -0.555570 0.162211
v -0.693520 -0.707107 0.137950
v -0.544895 -0.831470 0.108386
v -0.375330 -0.923880 0.074658
v -0.191342 -0.980785 0.038060
v -0.195090 0.980785 -0.000000
v -0.382683 0.923880 -0.000000
v -0.555570 0.831470 -0.000000
v -0.707107 0.707107 -0.000000
v -0.831469 0.555570 -0.000000
v -0.923879 0.382683 -0.000000
v -0.980785 0.195090 -0.000000
v -0.999999 0.000000 -0.000000
v -0.980785 -0.195090 -0.000000
v -0.923879 -0.382683 -0.000000
v -0.831469 -0.555570 -0.000000
v -0.707107 -0.707107 -0.000000
v -0.555570 -0.831470 -0.000000
v -0.382683 -0.923880 -0.000000
v -0.195090 -0.980785 -0.000000
v -0.191342 0.980785 -0.038060
v -0.375330 0.923880 -0.074658
v -0.544895 0.831470 -0.108386
v -0.693520 0.707107 -0.137950
v -0.815493 0.555570 -0.162212
v -0.906127 0.382683 -0.180240
v -0.961939 0.195090 -0.191342
v -0.980784 0.000000 -0.195091
v -0.961939 -0.195090 -0.191342
v -0.906127 -0.382683 -0.180240
v -0.815493 -0.555570 -0.162212
v -0.693520 -0.707107 -0.137950
v -0.544895 -0.831470 -0.108386
v -0.375330 -0.923880 -0.074658
v -0.191342 -0.980785 -0.038060
v -0.180240 0.980785 -0.074658
v -0.353553 0.923880 -0.146447
v -0.513279 0.831470 -0.212607
v -0.653281 0.707107 -0.270598
v -0.768177 0.555570 -0.318190
v -0.853553 0.382683 -0.353553
v -0.906127 0.195090 -0.375330
v -0.923878 0.000000 -0.382683
v -0.906127 -0.195090 -0.375330
v -0.853553 -0.382683 -0.353553
v -0.768177 -0.555570 -0.318190
v -0.653281 -0.707107 -0.270598
v -0.513279 -0.831470 -0.212607
v -0.353553 -0.923880 -0.146447
v -0.180240 -0.980785 -0.074658
v -0.162212 0.980785 -0.108386
v -0.318189 0.923880 -0.212607
v -0.461939 0.831470 -0.308658
v -0.587938 0.707107 -0.392847
v -0.691341 0.555570 -0.461940
v -0.768177 0.382683 -0.513280
v -0.815493 0.195090 -0.544895
v -0.831468 0.000000 -0.555570
v -0.815493 -0.195090 -0.544895
v -0.768177 -0.382683 -0.513280
v -0.691341 -0.555570 -0.461940
v -0.587938 -0.707107 -0.392847
v -0.461939 -0.831470 -0.308658
v -0.318189 -0.923880 -0.212607
v -0.162212 -0.980785 -0.108386
v -0.137950 0.980785 -0.137950
v -0.270598 0.923880 -0.270598
v -0.392847 0.831470 -0.392847
v -0.500000 0.707107 -0.500000
v -0.587937 0.555570 -0.587938
v -0.653281 0.382683 -0.653281
v -0.693519 0.195090 -0.693520
v -0.707106 0.000000 -0.707106
v -0.693519 -0.195090 -0.693520
v -0.653281 -0.382683 -0.653281
v -0.587937 -0.555570 -0.587938
v -0.500000 -0.707107 -0.500000
v -0.392847 -0.831470 -0.392847
v -0.270598 -0.923880 -0.270598
v -0.137950 -0.980785 -0.137950
v -0.108386 0.980785 -0.162212
v -0.212607 0.923880 -0.318190
v -0.308658 0.831470 -0.461939
v -0.392847 0.707107 -0.587938
v -0.461939 0.555570 -0.691341
v -0.513280 0.382683 -0.768177
v -0.544895 0.195090 -0.815493
v -0.555569 0.000000 -0.831469
v -0.544895 -0.195090 -0.815493
v -0.513280 -0.382683 -0.768177
v -0.461939 -0.555570 -0.691341
v -0.392847 -0.707107 -0.587938
v -0.308658 -0.831470 -0.461939
v -0.212607 -0.923880 -0.318190
v -0.108386 -0.980785 -0.162212
v -0.074658 0.980785 -0.180240
v -0.146446 0.923880 -0.353553
v -0.212607 0.831470 -0.513279
v -0.270598 0.707107 -0.653281
v -0.318189 0.555570 -0.768177
v -0.353553 0.382683 -0.853553
v -0.375330 0.195090 -0.906127
v -0.382683 0.000000 -0.923879
v -0.375330 -0.195090 -0.906127
v -0.353553 -0.382683 -0.853553
v -0.318189 -0.555570 -0.768177
v -0.270598 -0.707107 -0.653281
v -0.212607 -0.831470 -0.513279
v -0.146446 -0.923880 -0.353553
v -0.074658 -0.980785 -0.180240
v -0.038060 0.980785 -0.191342
v -0.074658 0.923880 -0.375330
v -0.108386 0.831470 -0.544895
v -0.137950 0.707107 -0.693520
v -0.162211 0.555570 -0.815493
v -0.180240 0.382683 -0.906127
v -0.191341 0.195090 -0.961939
v -0.195090 0.000000 -0.980784
v -0.191341 -0.195090 -0.961939
v -0.180240 -0.382683 -0.906127
v -0.162211 -0.555570 -0.815493
v -0.137950 -0.707107 -0.693520
v -0.108386 -0.831470 -0.544895
v -0.074658 -0.923880 -0.375330
v -0.038060 -0.980785 -0.191342
v 0.000000 0.980785 -0.195090
v 0.000000 0.923880 -0.382683
v 0.000000 0.707107 -0.707107
v 0.000000 0.382683 -0.923879
v 0.000000 -0.382683 -0.923879
v 0.000000 -0.707107 -0.707107
v 0.000000 -0.831470 -0.555570
v 0.000000 -0.923880 -0.382683
v 0.000000 -0.980785 -0.195090
v 0.797918 0.013069 -0.382683
v 0.780166 -0.182021 -0.375330
v 0.705508 0.013069 -0.555570
v 0.854823 0.013069 -0.195090
v 0.835978 -0.182021 -0.191342
v 0.874038 0.013069 0.000000
v 0.854823 -0.182021 0.000000
v 0.854823 0.013069 0.195090
v 0.835978 -0.182021 0.191342
v 0.797917 0.013069 0.382683
v 0.780165 -0.182021 0.375330
v 0.705507 0.013069 0.555570
v 0.853553 0.382683 -0.353553
v 0.906127 0.195090 -0.375330
v 0.906127 0.382683 -0.180240
v 0.961940 0.195090 -0.191342
v 0.906127 0.382683 0.180240
v 0.961940 0.195090 0.191342
v 0.853553 0.382683 0.353553
v 0.906127 0.195090 0.375330
vn 0.0975 -0.0975 -0.9904
vn 0.0286 0.9565 -0.2902
vn 0.0938 -0.2890 -0.9527
vn 0.0464 0.8810 -0.4709
vn 0.0865 -0.4696 -0.8786
vn 0.0624 0.7715 -0.6332
vn 0.0759 -0.6326 -0.7708
vn 0.0759 0.6326 -0.7708
vn 0.0624 -0.7715 -0.6332
vn 0.0865 0.4696 -0.8786
vn 0.0464 -0.8810 -0.4709
vn 0.0938 0.2890 -0.9527
vn 0.0286 -0.9565 -0.2902
vn 0.0975 0.0975 -0.9904
vn 0.0097 0.9951 -0.0980
vn 0.0097 -0.9951 -0.0980
vn 0.2889 0.0976 -0.9524
vn 0.0286 0.9951 -0.0942
vn 0.0286 -0.9951 -0.0942
vn 0.2889 -0.0976 -0.9524
vn 0.0846 0.9565 -0.2790
vn 0.2779 -0.2890 -0.9161
vn 0.1374 0.8810 -0.4528
vn 0.2563 -0.4696 -0.8448
vn 0.1847 0.7715 -0.6088
vn 0.2248 -0.6326 -0.7412
vn 0.2248 0.6326 -0.7412
vn 0.1847 -0.7715 -0.6088
vn 0.2563 0.4696 -0.8448
vn 0.1374 -0.8810 -0.4528
vn 0.2779 0.2890 -0.9161
vn 0.0846 -0.9565 -0.2790
vn 0.3651 -0.6326 -0.6831
vn 0.3651 0.6326 -0.6831
vn 0.2999 -0.7715 -0.5611
vn 0.4162 0.4696 -0.7786
vn 0.2230 -0.8810 -0.4173
vn 0.4513 0.2890 -0.8443
vn 0.1374 -0.9565 -0.2571
vn 0.4691 0.0975 -0.8777
vn 0.0464 0.9951 -0.0869
vn 0.0464 -0.9951 -0.0869
vn 0.4691 -0.0975 -0.8777
vn 0.1374 0.9565 -0.2571
vn 0.4513 -0.2890 -0.8443
vn 0.2230 0.8810 -0.4173
vn 0.4162 -0.4696 -0.7786
vn 0.2999 0.7715 -0.5611
vn 0.0625 0.9951 -0.0761
vn 0.0625 -0.9951 -0.0761
vn 0.6314 -0.0975 -0.7693
vn 0.1850 0.9565 -0.2254
vn 0.6073 -0.2890 -0.7400
vn 0.3002 0.8810 -0.3658
vn 0.5601 -0.4696 -0.6825
vn 0.4036 0.7715 -0.4918
vn 0.4913 -0.6326 -0.5987
vn 0.4913 0.6326 -0.5987
vn 0.4036 -0.7715 -0.4918
vn 0.5601 0.4696 -0.6825
vn 0.3002 -0.8810 -0.3658
vn 0.6073 0.2890 -0.7400
vn 0.1850 -0.9565 -0.2254
vn 0.6314 0.0975 -0.7693
vn 0.5987 0.6326 -0.4913
vn 0.4918 -0.7715 -0.4036
vn 0.6825 0.4696 -0.5601
vn 0.3658 -0.8810 -0.3002
vn 0.7400 0.2890 -0.6073
vn 0.2254 -0.9565 -0.1850
vn 0.7693 0.0975 -0.6314
vn 0.0761 0.9951 -0.0625
vn 0.0761 -0.9951 -0.0625
vn 0.7693 -0.0975 -0.6314
vn 0.2254 0.9565 -0.1850
vn 0.7400 -0.2890 -0.6073
vn 0.3658 0.8810 -0.3002
vn 0.6825 -0.4696 -0.5601
vn 0.4918 0.7715 -0.4036
vn 0.5987 -0.6326 -0.4913
vn 0.1032 0.9942 0.0313
vn 0.2571 0.9565 -0.1374
vn 0.8443 -0.2890 -0.4513
vn 0.4173 0.8810 -0.2230
vn 0.7786 -0.4696 -0.4162
vn 0.5611 0.7715 -0.2999
vn 0.6831 -0.6326 -0.3651
vn 0.6831 0.6326 -0.3651
vn 0.5611 -0.7715 -0.2999
vn 0.4700 -0.1082 -0.8760
vn 0.4173 -0.8810 -0.2230
vn 0.8443 0.2890 -0.4513
vn 0.2571 -0.9565 -0.1374
vn 0.8777 0.0975 -0.4691
vn 0.0869 0.9951 -0.0464
vn 0.0869 -0.9951 -0.0464
vn 0.6088 -0.7715 -0.1847
vn 0.7881 -0.3705 0.4916
vn 0.4528 -0.8810 -0.1374
vn 0.9161 0.2890 -0.2779
vn 0.2790 -0.9565 -0.0846
vn 0.9524 0.0975 -0.2889
vn 0.0942 0.9951 -0.0286
vn 0.0942 -0.9951 -0.0286
vn 0.1032 0.9942 -0.0313
vn 0.2790 0.9565 -0.0846
vn 0.9161 -0.2890 -0.2779
vn 0.4528 0.8810 -0.1374
vn 0.8448 -0.4696 -0.2563
vn 0.6088 0.7715 -0.1847
vn 0.7412 -0.6326 -0.2248
vn 0.7412 0.6326 -0.2248
vn 0.9527 -0.2890 -0.0938
vn 0.4709 0.8810 -0.0464
vn 0.8786 -0.4696 -0.0865
vn 0.6332 0.7715 -0.0624
vn 0.7708 -0.6326 -0.0759
vn 0.7708 0.6326 -0.0759
vn 0.6332 -0.7715 -0.0624
vn 0.8786 0.4696 -0.0865
vn 0.4709 -0.8810 -0.0464
vn 0.9527 0.2890 -0.0938
vn 0.2902 -0.9565 -0.0286
vn 0.9904 0.0975 -0.0975
vn 0.0980 0.9951 -0.0097
vn 0.0980 -0.9951 -0.0097
vn -0.1032 -0.9946 -0.0102
vn 0.2902 0.9565 -0.0286
vn 0.4709 -0.8810 0.0464
vn 0.9527 0.2890 0.0938
vn 0.2902 -0.9565 0.0286
vn 0.9904 0.0975 0.0976
vn 0.0980 0.9951 0.0097
vn 0.0980 -0.9951 0.0097
vn -0.1032 -0.9946 0.0102
vn 0.2902 0.9565 0.0286
vn 0.9527 -0.2890 0.0938
vn 0.4709 0.8810 0.0464
vn 0.8786 -0.4696 0.0865
vn 0.6332 0.7715 0.0624
vn 0.7708 -0.6326 0.0759
vn 0.7708 0.6326 0.0759
vn 0.6332 -0.7715 0.0624
vn 0.8786 0.4696 0.0865
vn 0.4528 0.8810 0.1374
vn 0.8448 -0.4696 0.2563
vn 0.6088 0.7715 0.1847
vn 0.7412 -0.6326 0.2248
vn 0.7412 0.6326 0.2248
vn 0.6088 -0.7715 0.1847
vn 0.7881 -0.3705 -0.4916
vn 0.4528 -0.8810 0.1374
vn 0.9161 0.2890 0.2779
vn 0.2790 -0.9565 0.0846
vn 0.9524 0.0975 0.2889
vn 0.0942 0.9951 0.0286
vn 0.0942 -0.9951 0.0286
vn -0.1030 -0.9932 -0.0551
vn 0.2790 0.9565 0.0846
vn 0.9161 -0.2890 0.2779
vn 0.8443 0.2890 0.4513
vn 0.2571 -0.9565 0.1374
vn 0.8777 0.0975 0.4691
vn 0.0869 0.9951 0.0464
vn 0.0869 -0.9951 0.0464
vn 0.0718 0.6915 -0.7188
vn 0.2571 0.9565 0.1374
vn 0.8443 -0.2890 0.4513
vn 0.4173 0.8810 0.2230
vn 0.7786 -0.4696 0.4162
vn 0.5611 0.7715 0.2999
vn 0.6831 -0.6326 0.3651
vn 0.6831 0.6326 0.3651
vn 0.5611 -0.7715 0.2999
vn 0.4700 -0.1082 0.8760
vn 0.4173 -0.8810 0.2230
vn 0.6825 -0.4696 0.5601
vn 0.4918 0.7715 0.4036
vn 0.5987 -0.6326 0.4913
vn 0.5987 0.6326 0.4913
vn 0.4918 -0.7715 0.4036
vn 0.6825 0.4696 0.5601
vn 0.3658 -0.8810 0.3002
vn 0.7400 0.2890 0.6073
vn 0.2254 -0.9565 0.1850
vn 0.7693 0.0975 0.6314
vn 0.0761 0.9951 0.0625
vn 0.0761 -0.9951 0.0625
vn 0.7693 -0.0975 0.6314
vn 0.2254 0.9565 0.1850
vn 0.7400 -0.2890 0.6073
vn 0.3658 0.8810 0.3002
vn 0.1850 -0.9565 0.2254
vn 0.6314 0.0975 0.7693
vn 0.0625 0.9951 0.0761
vn 0.0625 -0.9951 0.0761
vn 0.6314 -0.0975 0.7693
vn 0.1850 0.9565 0.2254
vn 0.6073 -0.2890 0.7400
vn 0.3002 0.8810 0.3658
vn 0.5601 -0.4696 0.6825
vn 0.4036 0.7715 0.4918
vn 0.4913 -0.6326 0.5987
vn 0.4913 0.6326 0.5987
vn 0.4036 -0.7715 0.4918
vn 0.5601 0.4696 0.6825
vn 0.3002 -0.8810 0.3658
vn 0.6073 0.2890 0.7400
vn 0.2999 0.7715 0.5611
vn 0.3651 -0.6326 0.6831
vn 0.3651 0.6326 0.6831
vn 0.2999 -0.7715 0.5611
vn 0.4162 0.4696 0.7786
vn 0.2230 -0.8810 0.4173
vn 0.4513 0.2890 0.8443
vn 0.1374 -0.9565 0.2571
vn 0.4691 0.0975 0.8777
vn 0.0464 0.9951 0.0869
vn 0.0464 -0.9951 0.0869
vn 0.4691 -0.0975 0.8777
vn 0.1374 0.9565 0.2571
vn 0.4513 -0.2890 0.8443
vn 0.2230 0.8810 0.4173
vn 0.4162 -0.4696 0.7786
vn 0.2889 0.0975 0.9524
vn 0.0286 0.9951 0.0942
vn 0.0286 -0.9951 0.0942
vn 0.2889 -0.0975 0.9524
vn 0.0846 0.9565 0.2790
vn 0.2779 -0.2890 0.9161
vn 0.1374 0.8810 0.4528
vn 0.2563 -0.4696 0.8448
vn 0.1847 0.7715 0.6088
vn 0.2248 -0.6326 0.7412
vn 0.2248 0.6326 0.7412
vn 0.1847 -0.7715 0.6088
vn 0.2563 0.4696 0.8448
vn 0.1374 -0.8810 0.4528
vn 0.2779 0.2890 0.9161
vn 0.0846 -0.9565 0.2790
vn 0.0759 -0.6326 0.7708
vn 0.0759 0.6326 0.7708
vn 0.0624 -0.7715 0.6332
vn 0.0865 0.4696 0.8786
vn 0.0464 -0.8810 0.4709
vn 0.0938 0.2890 0.9527
vn 0.0286 -0.9565 0.2902
vn 0.0975 0.0975 0.9904
vn 0.0097 0.9951 0.0980
vn 0.0097 -0.9951 0.0980
vn 0.0975 -0.0975 0.9904
vn 0.0286 0.9565 0.2902
vn 0.0938 -0.2890 0.9527
vn 0.0464 0.8810 0.4709
vn 0.0865 -0.4696 0.8786
vn 0.0624 0.7715 0.6332
vn -0.0097 -0.9951 0.0980
vn -0.0976 -0.0975 0.9904
vn -0.0286 0.9565 0.2902
vn -0.0938 -0.2890 0.9527
vn -0.0464 0.8810 0.4709
vn -0.0865 -0.4696 0.8786
vn -0.0624 0.7715 0.6332
vn -0.0759 -0.6326 0.7708
vn -0.0759 0.6326 0.7708
vn -0.0624 -0.7715 0.6332
vn -0.0865 0.4696 0.8786
vn -0.0464 -0.8810 0.4709
vn -0.0938 0.2890 0.9527
vn -0.0286 -0.9565 0.2902
vn -0.0976 0.0975 0.9904
vn -0.0097 0.9951 0.0980
vn -0.1847 -0.7715 0.6088
vn -0.2563 0.4696 0.8448
vn -0.1374 -0.8810 0.4528
vn -0.2779 0.2890 0.9161
vn -0.0846 -0.9565 0.2790
vn -0.2889 0.0975 0.9524
vn -0.0286 0.9951 0.0942
vn -0.0286 -0.9951 0.0942
vn -0.2889 -0.0975 0.9524
vn -0.0846 0.9565 0.2790
vn -0.2779 -0.2890 0.9161
vn -0.1374 0.8810 0.4528
vn -0.2563 -0.4696 0.8448
vn -0.1847 0.7715 0.6088
vn -0.2248 -0.6326 0.7412
vn -0.2248 0.6326 0.7412
vn -0.1374 0.9565 0.2571
vn -0.4513 -0.2890 0.8443
vn -0.2230 0.8810 0.4173
vn -0.4162 -0.4696 0.7786
vn -0.2999 0.7715 0.5611
vn -0.3651 -0.6326 0.6831
vn -0.3651 0.6326 0.6831
vn -0.2999 -0.7715 0.5611
vn -0.4162 0.4696 0.7786
vn -0.2230 -0.8810 0.4173
vn -0.4513 0.2890 0.8443
vn -0.1374 -0.9565 0.2571
vn -0.4691 0.0975 0.8777
vn -0.0464 0.9951 0.0869
vn -0.0464 -0.9951 0.0869
vn -0.4691 -0.0975 0.8777
vn -0.5601 0.4696 0.6825
vn -0.3002 -0.8810 0.3658
vn -0.6073 0.2890 0.7400
vn -0.1850 -0.9565 0.2254
vn -0.6314 0.0975 0.7693
vn -0.0625 0.9951 0.0761
vn -0.0625 -0.9951 0.0761
vn -0.6314 -0.0975 0.7693
vn -0.1850 0.9565 0.2254
vn -0.6073 -0.2890 0.7400
vn -0.3002 0.8810 0.3658
vn -0.5601 -0.4696 0.6825
vn -0.4036 0.7715 0.4918
vn -0.4913 -0.6326 0.5987
vn -0.4913 0.6326 0.5987
vn -0.4036 -0.7715 0.4918
vn -0.7400 -0.2890 0.6073
vn -0.3658 0.8810 0.3002
vn -0.6825 -0.4696 0.5601
vn -0.4918 0.7715 0.4036
vn -0.5987 -0.6326 0.4913
vn -0.5987 0.6326 0.4913
vn -0.4918 -0.7715 0.4036
vn -0.6825 0.4696 0.5601
vn -0.3658 -0.8810 0.3002
vn -0.7400 0.2890 0.6073
vn -0.2254 -0.9565 0.1850
vn -0.7693 0.0975 0.6314
vn -0.0761 0.9951 0.0625
vn -0.0761 -0.9951 0.0625
vn -0.7693 -0.0975 0.6314
vn -0.2254 0.9565 0.1850
vn -0.4173 -0.8810 0.2230
vn -0.8443 0.2890 0.4513
vn -0.2571 -0.9565 0.1374
vn -0.8777 0.0975 0.4691
vn -0.0869 0.9951 0.0464
vn -0.0869 -0.9951 0.0464
vn -0.8777 -0.0975 0.4691
vn -0.2571 0.9565 0.1374
vn -0.8443 -0.2890 0.4513
vn -0.4173 0.8810 0.2230
vn -0.7786 -0.4696 0.4162
vn -0.5611 0.7715 0.2999
vn -0.6831 -0.6326 0.3651
vn -0.6831 0.6326 0.3651
vn -0.5611 -0.7715 0.2999
vn -0.7786 0.4696 0.4162
vn -0.4528 0.8810 0.1374
vn -0.8448 -0.4696 0.2563
vn -0.6088 0.7715 0.1847
vn -0.7412 -0.6326 0.2248
vn -0.7412 0.6326 0.2248
vn -0.6088 -0.7715 0.1847
vn -0.8448 0.4696 0.2563
vn -0.4528 -0.8810 0.1374
vn -0.9161 0.2890 0.2779
vn -0.2790 -0.9565 0.0846
vn -0.9524 0.0975 0.2889
vn -0.0942 0.9951 0.0286
vn -0.0942 -0.9951 0.0286
vn -0.9524 -0.0975 0.2889
vn -0.2790 0.9565 0.0846
vn -0.9161 -0.2890 0.2779
vn -0.9527 0.2890 0.0938
vn -0.2902 -0.9565 0.0286
vn -0.9904 0.0975 0.0975
vn -0.0980 0.9951 0.0097
vn -0.0980 -0.9951 0.0097
vn -0.9904 -0.0975 0.0975
vn -0.2902 0.9565 0.0286
vn -0.9527 -0.2890 0.0938
vn -0.4709 0.8810 0.0464
vn -0.8786 -0.4696 0.0865
vn -0.6332 0.7715 0.0624
vn -0.7708 -0.6326 0.0759
vn -0.7708 0.6326 0.0759
vn -0.6332 -0.7715 0.0624
vn -0.8786 0.4696 0.0865
vn -0.4709 -0.8810 0.0464
vn -0.8786 -0.4696 -0.0865
vn -0.6332 0.7715 -0.0624
vn -0.7708 -0.6326 -0.0759
vn -0.7708 0.6326 -0.0759
vn -0.6332 -0.7715 -0.0624
vn -0.8786 0.4696 -0.0865
vn -0.4709 -0.8810 -0.0464
vn -0.9527 0.2890 -0.0938
vn -0.2902 -0.9565 -0.0286
vn -0.9904 0.0975 -0.0976
vn -0.0980 0.9951 -0.0097
vn -0.0980 -0.9951 -0.0097
vn -0.9904 -0.0975 -0.0976
vn -0.2902 0.9565 -0.0286
vn -0.9527 -0.2890 -0.0938
vn -0.4709 0.8810 -0.0464
vn -0.2790 -0.9565 -0.0846
vn -0.9524 0.0975 -0.2889
vn -0.0942 0.9951 -0.0286
vn -0.0942 -0.9951 -0.0286
vn -0.9524 -0.0975 -0.2889
vn -0.2790 0.9565 -0.0846
vn -0.9161 -0.2890 -0.2779
vn -0.4528 0.8810 -0.1374
vn -0.8448 -0.4696 -0.2563
vn -0.6088 0.7715 -0.1847
vn -0.7412 -0.6326 -0.2248
vn -0.7412 0.6326 -0.2248
vn -0.6088 -0.7715 -0.1847
vn -0.8448 0.4696 -0.2563
vn -0.4528 -0.8810 -0.1374
vn -0.9161 0.2890 -0.2779
vn -0.6831 -0.6326 -0.3651
vn -0.6831 0.6326 -0.3651
vn -0.5611 -0.7715 -0.2999
vn -0.7786 0.4696 -0.4162
vn -0.4173 -0.8810 -0.2231
vn -0.8443 0.2890 -0.4513
vn -0.2571 -0.9565 -0.1374
vn -0.8777 0.0975 -0.4691
vn -0.0869 0.9951 -0.0464
vn -0.0869 -0.9951 -0.0464
vn -0.8777 -0.0975 -0.4691
vn -0.2571 0.9565 -0.1374
vn -0.8443 -0.2890 -0.4513
vn -0.4173 0.8810 -0.2231
vn -0.7786 -0.4696 -0.4162
vn -0.5611 0.7715 -0.2999
vn -0.0761 0.9951 -0.0625
vn -0.0761 -0.9951 -0.0625
vn -0.7693 -0.0975 -0.6314
vn -0.2254 0.9565 -0.1850
vn -0.7400 -0.2890 -0.6073
vn -0.3658 0.8810 -0.3002
vn -0.6825 -0.4696 -0.5601
vn -0.4918 0.7715 -0.4036
vn -0.5987 -0.6326 -0.4913
vn -0.5987 0.6326 -0.4913
vn -0.4918 -0.7715 -0.4036
vn -0.6825 0.4696 -0.5601
vn -0.3658 -0.8810 -0.3002
vn -0.7400 0.2890 -0.6073
vn -0.2254 -0.9565 -0.1850
vn -0.7693 0.0975 -0.6314
vn -0.4913 0.6326 -0.5987
vn -0.4036 -0.7715 -0.4918
vn -0.5601 0.4696 -0.6825
vn -0.3002 -0.8810 -0.3658
vn -0.6073 0.2890 -0.7400
vn -0.1850 -0.9565 -0.2254
vn -0.6314 0.0975 -0.7693
vn -0.0625 0.9951 -0.0761
vn -0.0625 -0.9951 -0.0761
vn -0.6314 -0.0975 -0.7693
vn -0.1850 0.9565 -0.2254
vn -0.6073 -0.2890 -0.7400
vn -0.3002 0.8810 -0.3658
vn -0.5601 -0.4696 -0.6825
vn -0.4036 0.7715 -0.4918
vn -0.4913 -0.6326 -0.5987
vn -0.4691 -0.0975 -0.8777
vn -0.1374 0.9565 -0.2571
vn -0.4513 -0.2890 -0.8443
vn -0.2230 0.8810 -0.4173
vn -0.4162 -0.4696 -0.7786
vn -0.2999 0.7715 -0.5611
vn -0.3651 -0.6326 -0.6831
vn -0.3651 0.6326 -0.6831
vn -0.2999 -0.7715 -0.5611
vn -0.4162 0.4696 -0.7786
vn -0.2230 -0.8810 -0.4173
vn -0.4513 0.2890 -0.8443
vn -0.1374 -0.9565 -0.2571
vn -0.4691 0.0975 -0.8777
vn -0.0464 0.9951 -0.0869
vn -0.0464 -0.9951 -0.0869
vn -0.1847 -0.7715 -0.6088
vn -0.2563 0.4696 -0.8448
vn -0.1374 -0.8810 -0.4528
vn -0.2779 0.2890 -0.9161
vn -0.0846 -0.9565 -0.2790
vn -0.2889 0.0975 -0.9524
vn -0.0286 0.9951 -0.0942
vn -0.0286 -0.9951 -0.0942
vn -0.2889 -0.0975 -0.9524
vn -0.0846 0.9565 -0.2790
vn -0.2779 -0.2890 -0.9161
vn -0.1374 0.8810 -0.4528
vn -0.2563 -0.4696 -0.8448
vn -0.1847 0.7715 -0.6088
vn -0.2248 -0.6326 -0.7412
vn -0.2248 0.6326 -0.7412
vn -0.0286 0.9565 -0.2902
vn -0.0938 -0.2890 -0.9527
vn -0.0464 0.8810 -0.4709
vn -0.0865 -0.4696 -0.8786
vn -0.0624 0.7715 -0.6332
vn -0.0759 -0.6326 -0.7708
vn -0.0759 0.6326 -0.7708
vn -0.0624 -0.7715 -0.6332
vn -0.0865 0.4696 -0.8786
vn -0.0464 -0.8810 -0.4709
vn -0.0938 0.2890 -0.9527
vn -0.0286 -0.9565 -0.2902
vn -0.0976 0.0975 -0.9904
vn -0.0097 0.9951 -0.0980
vn -0.0097 -0.9951 -0.0980
vn -0.0976 -0.0975 -0.9904
vn 0.7786 0.4696 0.4162
vn 0.8448 0.4696 0.2563
vn 0.0349 0.6058 -0.7948
vn 0.0349 0.6058 0.7948
vn 0.8448 0.4696 -0.2563
vn 0.7786 0.4696 -0.4162
vn -0.1768 0.7542 -0.6324
vn -0.1768 0.7542 0.6324
vn 0.8777 -0.0975 -0.4691
vn 0.8777 -0.0975 0.4691
vn 0.9524 -0.0975 -0.2889
vn 0.9904 -0.0975 -0.0975
vn 0.9904 -0.0975 0.0976
vn 0.9524 -0.0975 0.2889
vn -0.1030 -0.9932 0.0551
vn 0.1032 0.9946 -0.0102
vn 0.0717 0.6915 0.7188
vn -0.1032 -0.9942 0.0313
vn 0.1032 0.9946 0.0102
vn -0.1032 -0.9942 -0.0313
vn 0.4964 0.2361 -0.8354
vn 0.6722 0.1572 0.7234
vn 0.5022 0.8512 -0.1523
vn 0.6705 -0.7135 -0.2034
vn 0.6722 0.1572 -0.7234
vn 0.4964 0.2361 0.8354
vn 0.5022 0.8512 0.1523
vn 0.6705 -0.7135 0.2034
vt 0.750000 0.437500
vt 0.750000 0.500000
vt 0.718750 0.500000
vt 0.718750 0.437500
vt 0.750000 0.875000
vt 0.750000 0.937500
vt 0.718750 0.937500
vt 0.718750 0.875000
vt 0.750000 0.375000
vt 0.718750 0.375000
vt 0.750000 0.812500
vt 0.718750 0.812500
vt 0.750000 0.312500
vt 0.718750 0.312500
vt 0.750000 0.750000
vt 0.718750 0.750000
vt 0.750000 0.250000
vt 0.718750 0.250000
vt 0.750000 0.687500
vt 0.718750 0.687500
vt 0.750000 0.187500
vt 0.718750 0.187500
vt 0.750000 0.625000
vt 0.718750 0.625000
vt 0.750000 0.125000
vt 0.718750 0.125000
vt 0.750000 0.562500
vt 0.718750 0.562500
vt 0.750000 0.062500
vt 0.718750 0.062500
vt 0.734375 1.000000
vt 0.734375 0.000000
vt 0.687500 0.562500
vt 0.687500 0.500000
vt 0.703125 1.000000
vt 0.687500 0.937500
vt 0.703125 0.000000
vt 0.687500 0.062500
vt 0.687500 0.437500
vt 0.687500 0.875000
vt 0.687500 0.375000
vt 0.687500 0.812500
vt 0.687500 0.312500
vt 0.687500 0.750000
vt 0.687500 0.250000
vt 0.687500 0.687500
vt 0.687500 0.187500
vt 0.687500 0.625000
vt 0.687500 0.125000
vt 0.656250 0.312500
vt 0.656250 0.250000
vt 0.656250 0.750000
vt 0.656250 0.687500
vt 0.656250 0.187500
vt 0.656250 0.625000
vt 0.656250 0.125000
vt 0.656250 0.562500
vt 0.656250 0.062500
vt 0.656250 0.500000
vt 0.671875 1.000000
vt 0.656250 0.937500
vt 0.671875 0.000000
vt 0.656250 0.437500
vt 0.656250 0.875000
vt 0.656250 0.375000
vt 0.656250 0.812500
vt 0.640625 1.000000
vt 0.625000 0.937500
vt 0.640625 0.000000
vt 0.625000 0.062500
vt 0.625000 0.500000
vt 0.625000 0.437500
vt 0.625000 0.875000
vt 0.625000 0.375000
vt 0.625000 0.812500
vt 0.625000 0.312500
vt 0.625000 0.750000
vt 0.625000 0.250000
vt 0.625000 0.687500
vt 0.625000 0.187500
vt 0.625000 0.625000
vt 0.625000 0.125000
vt 0.625000 0.562500
vt 0.593750 0.750000
vt 0.593750 0.687500
vt 0.593750 0.250000
vt 0.593750 0.187500
vt 0.593750 0.625000
vt 0.593750 0.125000
vt 0.593750 0.562500
vt 0.593750 0.062500
vt 0.593750 0.500000
vt 0.609375 1.000000
vt 0.593750 0.937500
vt 0.609375 0.000000
vt 0.593750 0.437500
vt 0.593750 0.875000
vt 0.593750 0.375000
vt 0.593750 0.812500
vt 0.593750 0.312500
vt 0.437500 0.437500
vt 0.468750 0.437500
vt 0.562500 0.937500
vt 0.562500 0.875000
vt 0.562500 0.437500
vt 0.562500 0.375000
vt 0.562500 0.812500
vt 0.562500 0.312500
vt 0.562500 0.750000
vt 0.562500 0.250000
vt 0.562500 0.187500
vt 0.562500 0.687500
vt 0.562500 0.625000
vt 0.562500 0.125000
vt 0.562500 0.562500
vt 0.562500 0.062500
vt 0.562500 0.500000
vt 0.578125 1.000000
vt 0.578125 0.000000
vt 0.531250 0.250000
vt 0.531250 0.187500
vt 0.531250 0.687500
vt 0.531250 0.125000
vt 0.557905 0.571395
vt 0.557752 0.616105
vt 0.535998 0.616105
vt 0.535845 0.571395
vt 0.531250 0.062500
vt 0.531250 0.562500
vt 0.531250 0.500000
vt 0.546875 1.000000
vt 0.531250 0.937500
vt 0.546875 0.000000
vt 0.531250 0.437500
vt 0.531250 0.875000
vt 0.531250 0.375000
vt 0.531250 0.812500
vt 0.531250 0.312500
vt 0.531250 0.750000
vt 0.500000 0.437500
vt 0.500000 0.375000
vt 0.500000 0.875000
vt 0.500000 0.812500
vt 0.500000 0.312500
vt 0.500000 0.750000
vt 0.500000 0.250000
vt 0.500000 0.687500
vt 0.500000 0.187500
vt 0.531250 0.625000
vt 0.500000 0.625000
vt 0.500000 0.125000
vt 0.500000 0.562500
vt 0.500000 0.062500
vt 0.500000 0.500000
vt 0.515625 1.000000
vt 0.500000 0.937500
vt 0.515625 0.000000
vt 0.468750 0.500000
vt 0.468750 0.187500
vt 0.468750 0.125000
vt 0.468750 0.625000
vt 0.468750 0.562500
vt 0.468750 0.062500
vt 0.484375 1.000000
vt 0.468750 0.937500
vt 0.484375 0.000000
vt 0.468750 0.875000
vt 0.468750 0.375000
vt 0.468750 0.812500
vt 0.468750 0.312500
vt 0.468750 0.750000
vt 0.468750 0.250000
vt 0.468750 0.687500
vt 0.437500 0.875000
vt 0.437500 0.812500
vt 0.437500 0.375000
vt 0.437500 0.312500
vt 0.437500 0.750000
vt 0.437500 0.250000
vt 0.437500 0.187500
vt 0.437500 0.687500
vt 0.437500 0.625000
vt 0.437500 0.125000
vt 0.464155 0.571395
vt 0.464002 0.616105
vt 0.442248 0.616105
vt 0.442095 0.571395
vt 0.437500 0.062500
vt 0.437500 0.562500
vt 0.437500 0.500000
vt 0.453125 1.000000
vt 0.437500 0.937500
vt 0.453125 0.000000
vt 0.406250 0.500000
vt 0.406250 0.625000
vt 0.406250 0.562500
vt 0.406250 0.125000
vt 0.406250 0.062500
vt 0.421875 1.000000
vt 0.406250 0.937500
vt 0.421875 0.000000
vt 0.406250 0.875000
vt 0.406250 0.437500
vt 0.406250 0.375000
vt 0.406250 0.812500
vt 0.406250 0.312500
vt 0.406250 0.750000
vt 0.406250 0.250000
vt 0.406250 0.687500
vt 0.406250 0.187500
vt 0.375000 0.375000
vt 0.375000 0.312500
vt 0.375000 0.812500
vt 0.375000 0.750000
vt 0.375000 0.250000
vt 0.375000 0.687500
vt 0.375000 0.187500
vt 0.375000 0.625000
vt 0.375000 0.125000
vt 0.375000 0.562500
vt 0.375000 0.062500
vt 0.375000 0.500000
vt 0.390625 1.000000
vt 0.375000 0.937500
vt 0.390625 0.000000
vt 0.375000 0.437500
vt 0.375000 0.875000
vt 0.343750 0.125000
vt 0.343750 0.062500
vt 0.343750 0.562500
vt 0.343750 0.500000
vt 0.359375 1.000000
vt 0.343750 0.937500
vt 0.359375 0.000000
vt 0.343750 0.437500
vt 0.343750 0.875000
vt 0.343750 0.375000
vt 0.343750 0.812500
vt 0.343750 0.312500
vt 0.343750 0.750000
vt 0.343750 0.250000
vt 0.343750 0.687500
vt 0.343750 0.187500
vt 0.343750 0.625000
vt 0.312500 0.812500
vt 0.312500 0.750000
vt 0.312500 0.312500
vt 0.312500 0.250000
vt 0.312500 0.687500
vt 0.312500 0.187500
vt 0.312500 0.625000
vt 0.312500 0.125000
vt 0.312500 0.562500
vt 0.312500 0.062500
vt 0.312500 0.500000
vt 0.328125 1.000000
vt 0.312500 0.937500
vt 0.328125 0.000000
vt 0.312500 0.437500
vt 0.312500 0.875000
vt 0.312500 0.375000
vt 0.281250 0.562500
vt 0.281250 0.500000
vt 0.296875 1.000000
vt 0.281250 0.937500
vt 0.296875 0.000000
vt 0.281250 0.062500
vt 0.281250 0.437500
vt 0.281250 0.875000
vt 0.281250 0.375000
vt 0.281250 0.812500
vt 0.281250 0.312500
vt 0.281250 0.750000
vt 0.281250 0.250000
vt 0.281250 0.687500
vt 0.281250 0.187500
vt 0.281250 0.625000
vt 0.281250 0.125000
vt 0.250000 0.312500
vt 0.250000 0.250000
vt 0.250000 0.750000
vt 0.250000 0.687500
vt 0.250000 0.187500
vt 0.250000 0.625000
vt 0.250000 0.125000
vt 0.250000 0.562500
vt 0.250000 0.062500
vt 0.250000 0.500000
vt 0.265625 1.000000
vt 0.250000 0.937500
vt 0.265625 0.000000
vt 0.250000 0.437500
vt 0.250000 0.875000
vt 0.250000 0.375000
vt 0.250000 0.812500
vt 0.234375 0.000000
vt 0.218750 0.062500
vt 0.218750 0.500000
vt 0.218750 0.437500
vt 0.218750 0.937500
vt 0.218750 0.875000
vt 0.218750 0.375000
vt 0.218750 0.812500
vt 0.218750 0.312500
vt 0.218750 0.750000
vt 0.218750 0.250000
vt 0.218750 0.687500
vt 0.218750 0.187500
vt 0.218750 0.625000
vt 0.218750 0.125000
vt 0.218750 0.562500
vt 0.234375 1.000000
vt 0.187500 0.250000
vt 0.187500 0.187500
vt 0.187500 0.687500
vt 0.187500 0.625000
vt 0.187500 0.125000
vt 0.187500 0.562500
vt 0.187500 0.062500
vt 0.187500 0.500000
vt 0.203125 1.000000
vt 0.187500 0.937500
vt 0.203125 0.000000
vt 0.187500 0.437500
vt 0.187500 0.875000
vt 0.187500 0.375000
vt 0.187500 0.812500
vt 0.187500 0.312500
vt 0.187500 0.750000
vt 0.156250 0.937500
vt 0.156250 0.875000
vt 0.156250 0.437500
vt 0.156250 0.375000
vt 0.156250 0.812500
vt 0.156250 0.312500
vt 0.156250 0.750000
vt 0.156250 0.250000
vt 0.156250 0.687500
vt 0.156250 0.187500
vt 0.156250 0.625000
vt 0.156250 0.125000
vt 0.156250 0.562500
vt 0.156250 0.062500
vt 0.156250 0.500000
vt 0.171875 1.000000
vt 0.171875 0.000000
vt 0.125000 0.687500
vt 0.125000 0.625000
vt 0.125000 0.187500
vt 0.125000 0.125000
vt 0.125000 0.562500
vt 0.125000 0.062500
vt 0.125000 0.500000
vt 0.140625 1.000000
vt 0.125000 0.937500
vt 0.140625 0.000000
vt 0.125000 0.437500
vt 0.125000 0.875000
vt 0.125000 0.375000
vt 0.125000 0.812500
vt 0.125000 0.312500
vt 0.125000 0.750000
vt 0.125000 0.250000
vt 0.093750 0.437500
vt 0.093750 0.375000
vt 0.093750 0.875000
vt 0.093750 0.812500
vt 0.093750 0.312500
vt 0.093750 0.750000
vt 0.093750 0.250000
vt 0.093750 0.687500
vt 0.093750 0.187500
vt 0.093750 0.625000
vt 0.093750 0.125000
vt 0.093750 0.562500
vt 0.093750 0.062500
vt 0.093750 0.500000
vt 0.109375 1.000000
vt 0.093750 0.937500
vt 0.109375 0.000000
vt 0.062500 0.187500
vt 0.062500 0.125000
vt 0.062500 0.625000
vt 0.062500 0.562500
vt 0.062500 0.062500
vt 0.062500 0.500000
vt 0.078125 1.000000
vt 0.062500 0.937500
vt 0.078125 0.000000
vt 0.062500 0.437500
vt 0.062500 0.875000
vt 0.062500 0.375000
vt 0.062500 0.812500
vt 0.062500 0.312500
vt 0.062500 0.750000
vt 0.062500 0.250000
vt 0.062500 0.687500
vt 0.031250 0.875000
vt 0.031250 0.812500
vt 0.031250 0.375000
vt 0.031250 0.312500
vt 0.031250 0.750000
vt 0.031250 0.250000
vt 0.031250 0.687500
vt 0.031250 0.187500
vt 0.031250 0.625000
vt 0.031250 0.125000
vt 0.031250 0.562500
vt 0.031250 0.062500
vt 0.031250 0.500000
vt 0.046875 1.000000
vt 0.031250 0.937500
vt 0.046875 0.000000
vt 0.031250 0.437500
vt 0.000000 0.625000
vt 0.000000 0.562500
vt 0.000000 0.125000
vt 0.000000 0.062500
vt 0.000000 0.500000
vt 0.015625 1.000000
vt 0.000000 0.937500
vt 0.015625 0.000000
vt 0.000000 0.437500
vt 0.000000 0.875000
vt 0.000000 0.375000
vt 0.000000 0.812500
vt 0.000000 0.312500
vt 0.000000 0.750000
vt 0.000000 0.250000
vt 0.000000 0.687500
vt 0.000000 0.187500
vt 1.000000 0.312500
vt 1.000000 0.375000
vt 0.968750 0.375000
vt 0.968750 0.312500
vt 1.000000 0.750000
vt 1.000000 0.812500
vt 0.968750 0.812500
vt 0.968750 0.750000
vt 1.000000 0.250000
vt 0.968750 0.250000
vt 1.000000 0.687500
vt 0.968750 0.687500
vt 1.000000 0.187500
vt 0.968750 0.187500
vt 1.000000 0.625000
vt 0.968750 0.625000
vt 1.000000 0.125000
vt 0.968750 0.125000
vt 1.000000 0.562500
vt 0.968750 0.562500
vt 1.000000 0.062500
vt 0.968750 0.062500
vt 1.000000 0.500000
vt 0.968750 0.500000
vt 1.000000 0.937500
vt 0.984375 1.000000
vt 0.968750 0.937500
vt 0.984375 0.000000
vt 1.000000 0.437500
vt 0.968750 0.437500
vt 1.000000 0.875000
vt 0.968750 0.875000
vt 0.937500 0.125000
vt 0.937500 0.062500
vt 0.937500 0.562500
vt 0.937500 0.500000
vt 0.953125 1.000000
vt 0.937500 0.937500
vt 0.953125 0.000000
vt 0.937500 0.437500
vt 0.937500 0.875000
vt 0.937500 0.375000
vt 0.937500 0.812500
vt 0.937500 0.312500
vt 0.937500 0.750000
vt 0.937500 0.250000
vt 0.937500 0.687500
vt 0.937500 0.187500
vt 0.937500 0.625000
vt 0.906250 0.312500
vt 0.906250 0.250000
vt 0.906250 0.750000
vt 0.906250 0.687500
vt 0.906250 0.187500
vt 0.906250 0.625000
vt 0.906250 0.125000
vt 0.906250 0.562500
vt 0.906250 0.062500
vt 0.906250 0.500000
vt 0.921875 1.000000
vt 0.906250 0.937500
vt 0.921875 0.000000
vt 0.906250 0.437500
vt 0.906250 0.875000
vt 0.906250 0.375000
vt 0.906250 0.812500
vt 0.890625 1.000000
vt 0.875000 0.937500
vt 0.890625 0.000000
vt 0.875000 0.062500
vt 0.875000 0.500000
vt 0.875000 0.437500
vt 0.875000 0.875000
vt 0.875000 0.375000
vt 0.875000 0.812500
vt 0.875000 0.312500
vt 0.875000 0.750000
vt 0.875000 0.250000
vt 0.875000 0.687500
vt 0.875000 0.187500
vt 0.875000 0.625000
vt 0.875000 0.125000
vt 0.875000 0.562500
vt 0.843750 0.750000
vt 0.843750 0.687500
vt 0.843750 0.250000
vt 0.843750 0.187500
vt 0.843750 0.625000
vt 0.843750 0.125000
vt 0.843750 0.562500
vt 0.843750 0.062500
vt 0.843750 0.500000
vt 0.859375 1.000000
vt 0.843750 0.937500
vt 0.859375 0.000000
vt 0.843750 0.437500
vt 0.843750 0.875000
vt 0.843750 0.375000
vt 0.843750 0.812500
vt 0.843750 0.312500
vt 0.812500 0.500000
vt 0.812500 0.437500
vt 0.812500 0.937500
vt 0.812500 0.875000
vt 0.812500 0.375000
vt 0.812500 0.812500
vt 0.812500 0.312500
vt 0.812500 0.750000
vt 0.812500 0.250000
vt 0.812500 0.687500
vt 0.812500 0.187500
vt 0.812500 0.625000
vt 0.812500 0.125000
vt 0.812500 0.562500
vt 0.812500 0.062500
vt 0.828125 1.000000
vt 0.828125 0.000000
vt 0.781250 0.250000
vt 0.781250 0.187500
vt 0.781250 0.687500
vt 0.781250 0.625000
vt 0.781250 0.125000
vt 0.781250 0.562500
vt 0.781250 0.062500
vt 0.781250 0.500000
vt 0.796875 1.000000
vt 0.781250 0.937500
vt 0.796875 0.000000
vt 0.781250 0.437500
vt 0.781250 0.875000
vt 0.781250 0.375000
vt 0.781250 0.812500
vt 0.781250 0.312500
vt 0.781250 0.750000
vt 0.765625 1.000000
vt 0.765625 0.000000
s 0
f 6/1/1 5/2/1 16/3/1 17/4/1
f 475/5/2 474/6/2 9/7/2 10/8/2
f 478/9/3 6/1/3 17/4/3 18/10/3
f 2/11/4 475/5/4 10/8/4 11/12/4
f 7/13/5 478/9/5 18/10/5 19/14/5
f 476/15/6 2/11/6 11/12/6 12/16/6
f 479/17/7 7/13/7 19/14/7 20/18/7
f 3/19/8 476/15/8 12/16/8 13/20/8
f 480/21/9 479/17/9 20/18/9 21/22/9
f 477/23/10 3/19/10 13/20/10 14/24/10
f 481/25/11 480/21/11 21/22/11 22/26/11
f 4/27/12 477/23/12 14/24/12 15/28/12
f 482/29/13 481/25/13 22/26/13 23/30/13
f 5/2/14 4/27/14 15/28/14 16/3/14
f 474/6/15 1/31/15 9/7/15
f 8/32/16 482/29/16 23/30/16
f 16/3/17 15/28/17 30/33/17 31/34/17
f 9/7/18 1/35/18 24/36/18
f 8/37/19 23/30/19 38/38/19
f 17/4/20 16/3/20 31/34/20 32/39/20
f 10/8/21 9/7/21 24/36/21 25/40/21
f 18/10/22 17/4/22 32/39/22 33/41/22
f 11/12/23 10/8/23 25/40/23 26/42/23
f 19/14/24 18/10/24 33/41/24 34/43/24
f 12/16/25 11/12/25 26/42/25 27/44/25
f 20/18/26 19/14/26 34/43/26 35/45/26
f 13/20/27 12/16/27 27/44/27 28/46/27
f 21/22/28 20/18/28 35/45/28 36/47/28
f 14/24/29 13/20/29 28/46/29 29/48/29
f 22/26/30 21/22/30 36/47/30 37/49/30
f 15/28/31 14/24/31 29/48/31 30/33/31
f 23/30/32 22/26/32 37/49/32 38/38/32
f 35/45/33 34/43/33 49/50/33 50/51/33
f 28/46/34 27/44/34 42/52/34 43/53/34
f 36/47/35 35/45/35 50/51/35 51/54/35
f 29/48/36 28/46/36 43/53/36 44/55/36
f 37/49/37 36/47/37 51/54/37 52/56/37
f 30/33/38 29/48/38 44/55/38 45/57/38
f 38/38/39 37/49/39 52/56/39 53/58/39
f 31/34/40 30/33/40 45/57/40 46/59/40
f 24/36/41 1/60/41 39/61/41
f 8/62/42 38/38/42 53/58/42
f 32/39/43 31/34/43 46/59/43 47/63/43
f 25/40/44 24/36/44 39/61/44 40/64/44
f 33/41/45 32/39/45 47/63/45 48/65/45
f 26/42/46 25/40/46 40/64/46 41/66/46
f 34/43/47 33/41/47 48/65/47 49/50/47
f 27/44/48 26/42/48 41/66/48 42/52/48
f 39/61/49 1/67/49 54/68/49
f 8/69/50 53/58/50 68/70/50
f 47/63/51 46/59/51 61/71/51 62/72/51
f 40/64/52 39/61/52 54/68/52 55/73/52
f 48/65/53 47/63/53 62/72/53 63/74/53
f 41/66/54 40/64/54 55/73/54 56/75/54
f 49/50/55 48/65/55 63/74/55 64/76/55
f 42/52/56 41/66/56 56/75/56 57/77/56
f 50/51/57 49/50/57 64/76/57 65/78/57
f 43/53/58 42/52/58 57/77/58 58/79/58
f 51/54/59 50/51/59 65/78/59 66/80/59
f 44/55/60 43/53/60 58/79/60 59/81/60
f 52/56/61 51/54/61 66/80/61 67/82/61
f 45/57/62 44/55/62 59/81/62 60/83/62
f 53/58/63 52/56/63 67/82/63 68/70/63
f 46/59/64 45/57/64 60/83/64 61/71/64
f 58/79/65 57/77/65 72/84/65 73/85/65
f 66/80/66 65/78/66 80/86/66 81/87/66
f 59/81/67 58/79/67 73/85/67 74/88/67
f 67/82/68 66/80/68 81/87/68 82/89/68
f 60/83/69 59/81/69 74/88/69 75/90/69
f 68/70/70 67/82/70 82/89/70 83/91/70
f 61/71/71 60/83/71 75/90/71 76/92/71
f 54/68/72 1/93/72 69/94/72
f 8/95/73 68/70/73 83/91/73
f 62/72/74 61/71/74 76/92/74 77/96/74
f 55/73/75 54/68/75 69/94/75 70/97/75
f 63/74/76 62/72/76 77/96/76 78/98/76
f 56/75/77 55/73/77 70/97/77 71/99/77
f 64/76/78 63/74/78 78/98/78 79/100/78
f 57/77/79 56/75/79 71/99/79 72/84/79
f 65/78/80 64/76/80 79/100/80 80/86/80
f 152/101/81 137/102/81 491/102/81 493/101/81
f 70/97/82 69/94/82 84/103/82 85/104/82
f 78/98/83 77/96/83 92/105/83 93/106/83
f 71/99/84 70/97/84 85/104/84 86/107/84
f 79/100/85 78/98/85 93/106/85 94/108/85
f 72/84/86 71/99/86 86/107/86 87/109/86
f 80/86/87 79/100/87 94/108/87 95/110/87
f 73/85/88 72/84/88 87/109/88
f 81/87/89 80/86/89 95/110/89 96/111/89
f 73/85/90 88/112/90 495/113/90
f 82/89/91 81/87/91 96/111/91 97/114/91
f 75/90/92 74/88/92 495/113/92 496/115/92
f 83/91/93 82/89/93 97/114/93 98/116/93
f 76/92/94 75/90/94 496/115/94 91/117/94
f 69/94/95 1/118/95 84/103/95
f 8/119/96 83/91/96 98/116/96
f 96/111/97 95/110/97 110/120/97 111/121/97
f 495/113/98 88/112/98 103/122/98
f 97/114/99 96/111/99 111/121/99 112/123/99
f 90/124/100 89/125/100 104/126/100 105/127/100
f 98/116/101 97/114/101 112/123/101 113/128/101
f 91/117/102 496/115/102 498/129/102 106/130/102
f 84/103/103 1/131/103 99/132/103
f 8/133/104 98/116/104 113/128/104
f 107/134/105 92/105/105 484/105/105 487/134/105
f 85/104/106 84/103/106 99/132/106 100/135/106
f 93/106/107 92/105/107 107/134/107 108/136/107
f 86/107/108 85/104/108 100/135/108 101/137/108
f 94/108/109 93/106/109 108/136/109 109/138/109
f 87/109/110 86/107/110 101/137/110 102/139/110
f 95/110/111 94/108/111 109/138/111 110/120/111
f 87/109/112 102/139/112 103/122/112
f 108/136/113 107/134/113 122/140/113 123/141/113
f 101/137/114 100/135/114 115/142/114 116/143/114
f 109/138/115 108/136/115 123/141/115 124/144/115
f 102/139/116 101/137/116 116/143/116 117/145/116
f 110/120/117 109/138/117 124/144/117 125/146/117
f 103/122/118 102/139/118 117/145/118 118/147/118
f 111/121/119 110/120/119 125/146/119 126/148/119
f 497/149/120 103/122/120 118/147/120 119/150/120
f 112/123/121 111/121/121 126/148/121 127/151/121
f 498/129/122 497/149/122 119/150/122 120/152/122
f 113/128/123 112/123/123 127/151/123 128/153/123
f 106/130/124 498/129/124 120/152/124 121/154/124
f 99/132/125 1/155/125 114/156/125
f 8/157/126 113/128/126 128/153/126
f 121/154/127 136/158/127 490/158/127 488/154/127
f 100/135/128 99/132/128 114/156/128 115/142/128
f 127/151/129 126/148/129 141/159/129 142/160/129
f 120/152/130 119/150/130 499/161/130 500/162/130
f 128/153/131 127/151/131 142/160/131 143/163/131
f 121/154/132 120/152/132 500/162/132 136/158/132
f 114/156/133 1/164/133 129/165/133
f 8/166/134 128/153/134 143/163/134
f 106/130/135 121/154/135 488/154/135 486/130/135
f 115/142/136 114/156/136 129/165/136 130/167/136
f 123/141/137 122/140/137 137/102/137 138/168/137
f 116/143/138 115/142/138 130/167/138 131/169/138
f 124/144/139 123/141/139 138/168/139 139/170/139
f 117/145/140 116/143/140 131/169/140 132/171/140
f 125/146/141 124/144/141 139/170/141 140/172/141
f 118/147/142 117/145/142 132/171/142 133/173/142
f 126/148/143 125/146/143 140/172/143 141/159/143
f 119/150/144 118/147/144 133/173/144 499/161/144
f 131/169/145 130/167/145 145/174/145 146/175/145
f 139/170/146 138/168/146 153/176/146 154/177/146
f 132/171/147 131/169/147 146/175/147 147/178/147
f 140/172/148 139/170/148 154/177/148 155/179/148
f 133/173/149 132/171/149 147/178/149
f 141/159/150 140/172/150 155/179/150 156/180/150
f 133/173/151 148/181/151 501/182/151
f 142/160/152 141/159/152 156/180/152 157/183/152
f 135/184/153 134/185/153 149/186/153 150/187/153
f 143/163/154 142/160/154 157/183/154 158/188/154
f 136/158/155 500/162/155 502/189/155 151/190/155
f 129/165/156 1/191/156 144/192/156
f 8/193/157 143/163/157 158/188/157
f 151/190/158 166/194/158 494/194/158 492/190/158
f 130/167/159 129/165/159 144/192/159 145/174/159
f 138/168/160 137/102/160 152/101/160 153/176/160
f 502/189/161 501/182/161 164/195/161 165/196/161
f 158/188/162 157/183/162 172/197/162 173/198/162
f 151/190/163 502/189/163 165/196/163 166/194/163
f 144/192/164 1/199/164 159/200/164
f 8/201/165 158/188/165 173/198/165
f 166/194/166 152/101/166 493/101/166 494/194/166
f 145/174/167 144/192/167 159/200/167 160/202/167
f 153/176/168 152/101/168 167/203/168 168/204/168
f 146/175/169 145/174/169 160/202/169 161/205/169
f 154/177/170 153/176/170 168/204/170 169/206/170
f 147/178/171 146/175/171 161/205/171 162/207/171
f 155/179/172 154/177/172 169/206/172 170/208/172
f 147/178/173 162/207/173 163/209/173
f 156/180/174 155/179/174 170/208/174 171/210/174
f 501/182/175 148/181/175 163/209/175
f 157/183/176 156/180/176 171/210/176 172/197/176
f 169/206/177 168/204/177 183/211/177 184/212/177
f 162/207/178 161/205/178 176/213/178 177/214/178
f 170/208/179 169/206/179 184/212/179 185/215/179
f 163/209/180 162/207/180 177/214/180 178/216/180
f 171/210/181 170/208/181 185/215/181 186/217/181
f 164/195/182 163/209/182 178/216/182 179/218/182
f 172/197/183 171/210/183 186/217/183 187/219/183
f 165/196/184 164/195/184 179/218/184 180/220/184
f 173/198/185 172/197/185 187/219/185 188/221/185
f 166/194/186 165/196/186 180/220/186 181/222/186
f 159/200/187 1/223/187 174/224/187
f 8/225/188 173/198/188 188/221/188
f 167/203/189 166/194/189 181/222/189 182/226/189
f 160/202/190 159/200/190 174/224/190 175/227/190
f 168/204/191 167/203/191 182/226/191 183/211/191
f 161/205/192 160/202/192 175/227/192 176/213/192
f 188/221/193 187/219/193 202/228/193 203/229/193
f 181/222/194 180/220/194 195/230/194 196/231/194
f 174/224/195 1/232/195 189/233/195
f 8/234/196 188/221/196 203/229/196
f 182/226/197 181/222/197 196/231/197 197/235/197
f 175/227/198 174/224/198 189/233/198 190/236/198
f 183/211/199 182/226/199 197/235/199 198/237/199
f 176/213/200 175/227/200 190/236/200 191/238/200
f 184/212/201 183/211/201 198/237/201 199/239/201
f 177/214/202 176/213/202 191/238/202 192/240/202
f 185/215/203 184/212/203 199/239/203 200/241/203
f 178/216/204 177/214/204 192/240/204 193/242/204
f 186/217/205 185/215/205 200/241/205 201/243/205
f 179/218/206 178/216/206 193/242/206 194/244/206
f 187/219/207 186/217/207 201/243/207 202/228/207
f 180/220/208 179/218/208 194/244/208 195/230/208
f 192/240/209 191/238/209 206/245/209 207/246/209
f 200/241/210 199/239/210 214/247/210 215/248/210
f 193/242/211 192/240/211 207/246/211 208/249/211
f 201/243/212 200/241/212 215/248/212 216/250/212
f 194/244/213 193/242/213 208/249/213 209/251/213
f 202/228/214 201/243/214 216/250/214 217/252/214
f 195/230/215 194/244/215 209/251/215 210/253/215
f 203/229/216 202/228/216 217/252/216 218/254/216
f 196/231/217 195/230/217 210/253/217 211/255/217
f 189/233/218 1/256/218 204/257/218
f 8/258/219 203/229/219 218/254/219
f 197/235/220 196/231/220 211/255/220 212/259/220
f 190/236/221 189/233/221 204/257/221 205/260/221
f 198/237/222 197/235/222 212/259/222 213/261/222
f 191/238/223 190/236/223 205/260/223 206/245/223
f 199/239/224 198/237/224 213/261/224 214/247/224
f 211/255/225 210/253/225 225/262/225 226/263/225
f 204/257/226 1/264/226 219/265/226
f 8/266/227 218/254/227 233/267/227
f 212/259/228 211/255/228 226/263/228 227/268/228
f 205/260/229 204/257/229 219/265/229 220/269/229
f 213/261/230 212/259/230 227/268/230 228/270/230
f 206/245/231 205/260/231 220/269/231 221/271/231
f 214/247/232 213/261/232 228/270/232 229/272/232
f 207/246/233 206/245/233 221/271/233 222/273/233
f 215/248/234 214/247/234 229/272/234 230/274/234
f 208/249/235 207/246/235 222/273/235 223/275/235
f 216/250/236 215/248/236 230/274/236 231/276/236
f 209/251/237 208/249/237 223/275/237 224/277/237
f 217/252/238 216/250/238 231/276/238 232/278/238
f 210/253/239 209/251/239 224/277/239 225/262/239
f 218/254/240 217/252/240 232/278/240 233/267/240
f 230/274/241 229/272/241 244/279/241 245/280/241
f 223/275/242 222/273/242 237/281/242 238/282/242
f 231/276/243 230/274/243 245/280/243 246/283/243
f 224/277/244 223/275/244 238/282/244 239/284/244
f 232/278/245 231/276/245 246/283/245 247/285/245
f 225/262/246 224/277/246 239/284/246 240/286/246
f 233/267/247 232/278/247 247/285/247 248/287/247
f 226/263/248 225/262/248 240/286/248 241/288/248
f 219/265/249 1/289/249 234/290/249
f 8/291/250 233/267/250 248/287/250
f 227/268/251 226/263/251 241/288/251 242/292/251
f 220/269/252 219/265/252 234/290/252 235/293/252
f 228/270/253 227/268/253 242/292/253 243/294/253
f 221/271/254 220/269/254 235/293/254 236/295/254
f 229/272/255 228/270/255 243/294/255 244/279/255
f 222/273/256 221/271/256 236/295/256 237/281/256
f 8/296/257 248/287/257 263/297/257
f 242/292/258 241/288/258 256/298/258 257/299/258
f 235/293/259 234/290/259 249/300/259 250/301/259
f 243/294/260 242/292/260 257/299/260 258/302/260
f 236/295/261 235/293/261 250/301/261 251/303/261
f 244/279/262 243/294/262 258/302/262 259/304/262
f 237/281/263 236/295/263 251/303/263 252/305/263
f 245/280/264 244/279/264 259/304/264 260/306/264
f 238/282/265 237/281/265 252/305/265 253/307/265
f 246/283/266 245/280/266 260/306/266 261/308/266
f 239/284/267 238/282/267 253/307/267 254/309/267
f 247/285/268 246/283/268 261/308/268 262/310/268
f 240/286/269 239/284/269 254/309/269 255/311/269
f 248/287/270 247/285/270 262/310/270 263/297/270
f 241/288/271 240/286/271 255/311/271 256/298/271
f 234/290/272 1/312/272 249/300/272
f 261/308/273 260/306/273 275/313/273 276/314/273
f 254/309/274 253/307/274 268/315/274 269/316/274
f 262/310/275 261/308/275 276/314/275 277/317/275
f 255/311/276 254/309/276 269/316/276 270/318/276
f 263/297/277 262/310/277 277/317/277 278/319/277
f 256/298/278 255/311/278 270/318/278 271/320/278
f 249/300/279 1/321/279 264/322/279
f 8/323/280 263/297/280 278/319/280
f 257/299/281 256/298/281 271/320/281 272/324/281
f 250/301/282 249/300/282 264/322/282 265/325/282
f 258/302/283 257/299/283 272/324/283 273/326/283
f 251/303/284 250/301/284 265/325/284 266/327/284
f 259/304/285 258/302/285 273/326/285 274/328/285
f 252/305/286 251/303/286 266/327/286 267/329/286
f 260/306/287 259/304/287 274/328/287 275/313/287
f 253/307/288 252/305/288 267/329/288 268/315/288
f 265/325/289 264/322/289 279/330/289 280/331/289
f 273/326/290 272/324/290 287/332/290 288/333/290
f 266/327/291 265/325/291 280/331/291 281/334/291
f 274/328/292 273/326/292 288/333/292 289/335/292
f 267/329/293 266/327/293 281/334/293 282/336/293
f 275/313/294 274/328/294 289/335/294 290/337/294
f 268/315/295 267/329/295 282/336/295 283/338/295
f 276/314/296 275/313/296 290/337/296 291/339/296
f 269/316/297 268/315/297 283/338/297 284/340/297
f 277/317/298 276/314/298 291/339/298 292/341/298
f 270/318/299 269/316/299 284/340/299 285/342/299
f 278/319/300 277/317/300 292/341/300 293/343/300
f 271/320/301 270/318/301 285/342/301 286/344/301
f 264/322/302 1/345/302 279/330/302
f 8/346/303 278/319/303 293/343/303
f 272/324/304 271/320/304 286/344/304 287/332/304
f 284/340/305 283/338/305 298/347/305 299/348/305
f 292/341/306 291/339/306 306/349/306 307/350/306
f 285/342/307 284/340/307 299/348/307 300/351/307
f 293/343/308 292/341/308 307/350/308 308/352/308
f 286/344/309 285/342/309 300/351/309 301/353/309
f 279/330/310 1/354/310 294/355/310
f 8/356/311 293/343/311 308/352/311
f 287/332/312 286/344/312 301/353/312 302/357/312
f 280/331/313 279/330/313 294/355/313 295/358/313
f 288/333/314 287/332/314 302/357/314 303/359/314
f 281/334/315 280/331/315 295/358/315 296/360/315
f 289/335/316 288/333/316 303/359/316 304/361/316
f 282/336/317 281/334/317 296/360/317 297/362/317
f 290/337/318 289/335/318 304/361/318 305/363/318
f 283/338/319 282/336/319 297/362/319 298/347/319
f 291/339/320 290/337/320 305/363/320 306/349/320
f 303/359/321 302/357/321 317/364/321 318/365/321
f 296/360/322 295/358/322 310/366/322 311/367/322
f 304/361/323 303/359/323 318/365/323 319/368/323
f 297/362/324 296/360/324 311/367/324 312/369/324
f 305/363/325 304/361/325 319/368/325 320/370/325
f 298/347/326 297/362/326 312/369/326 313/371/326
f 306/349/327 305/363/327 320/370/327 321/372/327
f 299/348/328 298/347/328 313/371/328 314/373/328
f 307/350/329 306/349/329 321/372/329 322/374/329
f 300/351/330 299/348/330 314/373/330 315/375/330
f 308/352/331 307/350/331 322/374/331 323/376/331
f 301/353/332 300/351/332 315/375/332 316/377/332
f 294/355/333 1/378/333 309/379/333
f 8/380/334 308/352/334 323/376/334
f 302/357/335 301/353/335 316/377/335 317/364/335
f 295/358/336 294/355/336 309/379/336 310/366/336
f 322/374/337 321/372/337 336/381/337 337/382/337
f 315/375/338 314/373/338 329/383/338 330/384/338
f 323/376/339 322/374/339 337/382/339 338/385/339
f 316/377/340 315/375/340 330/384/340 331/386/340
f 309/379/341 1/387/341 324/388/341
f 8/389/342 323/376/342 338/385/342
f 317/364/343 316/377/343 331/386/343 332/390/343
f 310/366/344 309/379/344 324/388/344 325/391/344
f 318/365/345 317/364/345 332/390/345 333/392/345
f 311/367/346 310/366/346 325/391/346 326/393/346
f 319/368/347 318/365/347 333/392/347 334/394/347
f 312/369/348 311/367/348 326/393/348 327/395/348
f 320/370/349 319/368/349 334/394/349 335/396/349
f 313/371/350 312/369/350 327/395/350 328/397/350
f 321/372/351 320/370/351 335/396/351 336/381/351
f 314/373/352 313/371/352 328/397/352 329/383/352
f 326/393/353 325/391/353 340/398/353 341/399/353
f 334/394/354 333/392/354 348/400/354 349/401/354
f 327/395/355 326/393/355 341/399/355 342/402/355
f 335/396/356 334/394/356 349/401/356 350/403/356
f 328/397/357 327/395/357 342/402/357 343/404/357
f 336/381/358 335/396/358 350/403/358 351/405/358
f 329/383/359 328/397/359 343/404/359 344/406/359
f 337/382/360 336/381/360 351/405/360 352/407/360
f 330/384/361 329/383/361 344/406/361 345/408/361
f 338/385/362 337/382/362 352/407/362 353/409/362
f 331/386/363 330/384/363 345/408/363 346/410/363
f 324/388/364 1/411/364 339/412/364
f 8/413/365 338/385/365 353/409/365
f 332/390/366 331/386/366 346/410/366 347/414/366
f 325/391/367 324/388/367 339/412/367 340/398/367
f 333/392/368 332/390/368 347/414/368 348/400/368
f 345/408/369 344/406/369 359/415/369 360/416/369
f 353/409/370 352/407/370 367/417/370 368/418/370
f 346/410/371 345/408/371 360/416/371 361/419/371
f 339/412/372 1/420/372 354/421/372
f 8/422/373 353/409/373 368/418/373
f 347/414/374 346/410/374 361/419/374 362/423/374
f 340/398/375 339/412/375 354/421/375 355/424/375
f 348/400/376 347/414/376 362/423/376 363/425/376
f 341/399/377 340/398/377 355/424/377 356/426/377
f 349/401/378 348/400/378 363/425/378 364/427/378
f 342/402/379 341/399/379 356/426/379 357/428/379
f 350/403/380 349/401/380 364/427/380 365/429/380
f 343/404/381 342/402/381 357/428/381 358/430/381
f 351/405/382 350/403/382 365/429/382 366/431/382
f 344/406/383 343/404/383 358/430/383 359/415/383
f 352/407/384 351/405/384 366/431/384 367/417/384
f 364/432/385 363/433/385 378/434/385 379/435/385
f 357/436/386 356/437/386 371/438/386 372/439/386
f 365/440/387 364/432/387 379/435/387 380/441/387
f 358/442/388 357/436/388 372/439/388 373/443/388
f 366/444/389 365/440/389 380/441/389 381/445/389
f 359/446/390 358/442/390 373/443/390 374/447/390
f 367/448/391 366/444/391 381/445/391 382/449/391
f 360/450/392 359/446/392 374/447/392 375/451/392
f 368/452/393 367/448/393 382/449/393 383/453/393
f 361/454/394 360/450/394 375/451/394 376/455/394
f 354/456/395 1/457/395 369/458/395
f 8/459/396 368/452/396 383/453/396
f 362/460/397 361/454/397 376/455/397 377/461/397
f 355/462/398 354/456/398 369/458/398 370/463/398
f 363/433/399 362/460/399 377/461/399 378/434/399
f 356/437/400 355/462/400 370/463/400 371/438/400
f 383/453/401 382/449/401 397/464/401 398/465/401
f 376/455/402 375/451/402 390/466/402 391/467/402
f 369/458/403 1/468/403 384/469/403
f 8/470/404 383/453/404 398/465/404
f 377/461/405 376/455/405 391/467/405 392/471/405
f 370/463/406 369/458/406 384/469/406 385/472/406
f 378/434/407 377/461/407 392/471/407 393/473/407
f 371/438/408 370/463/408 385/472/408 386/474/408
f 379/435/409 378/434/409 393/473/409 394/475/409
f 372/439/410 371/438/410 386/474/410 387/476/410
f 380/441/411 379/435/411 394/475/411 395/477/411
f 373/443/412 372/439/412 387/476/412 388/478/412
f 381/445/413 380/441/413 395/477/413 396/479/413
f 374/447/414 373/443/414 388/478/414 389/480/414
f 382/449/415 381/445/415 396/479/415 397/464/415
f 375/451/416 374/447/416 389/480/416 390/466/416
f 395/477/417 394/475/417 409/481/417 410/482/417
f 388/478/418 387/476/418 402/483/418 403/484/418
f 396/479/419 395/477/419 410/482/419 411/485/419
f 389/480/420 388/478/420 403/484/420 404/486/420
f 397/464/421 396/479/421 411/485/421 412/487/421
f 390/466/422 389/480/422 404/486/422 405/488/422
f 398/465/423 397/464/423 412/487/423 413/489/423
f 391/467/424 390/466/424 405/488/424 406/490/424
f 384/469/425 1/491/425 399/492/425
f 8/493/426 398/465/426 413/489/426
f 392/471/427 391/467/427 406/490/427 407/494/427
f 385/472/428 384/469/428 399/492/428 400/495/428
f 393/473/429 392/471/429 407/494/429 408/496/429
f 386/474/430 385/472/430 400/495/430 401/497/430
f 394/475/431 393/473/431 408/496/431 409/481/431
f 387/476/432 386/474/432 401/497/432 402/483/432
f 399/492/433 1/498/433 414/499/433
f 8/500/434 413/489/434 428/501/434
f 407/494/435 406/490/435 421/502/435 422/503/435
f 400/495/436 399/492/436 414/499/436 415/504/436
f 408/496/437 407/494/437 422/503/437 423/505/437
f 401/497/438 400/495/438 415/504/438 416/506/438
f 409/481/439 408/496/439 423/505/439 424/507/439
f 402/483/440 401/497/440 416/506/440 417/508/440
f 410/482/441 409/481/441 424/507/441 425/509/441
f 403/484/442 402/483/442 417/508/442 418/510/442
f 411/485/443 410/482/443 425/509/443 426/511/443
f 404/486/444 403/484/444 418/510/444 419/512/444
f 412/487/445 411/485/445 426/511/445 427/513/445
f 405/488/446 404/486/446 419/512/446 420/514/446
f 413/489/447 412/487/447 427/513/447 428/501/447
f 406/490/448 405/488/448 420/514/448 421/502/448
f 418/510/449 417/508/449 432/515/449 433/516/449
f 426/511/450 425/509/450 440/517/450 441/518/450
f 419/512/451 418/510/451 433/516/451 434/519/451
f 427/513/452 426/511/452 441/518/452 442/520/452
f 420/514/453 419/512/453 434/519/453 435/521/453
f 428/501/454 427/513/454 442/520/454 443/522/454
f 421/502/455 420/514/455 435/521/455 436/523/455
f 414/499/456 1/524/456 429/525/456
f 8/526/457 428/501/457 443/522/457
f 422/503/458 421/502/458 436/523/458 437/527/458
f 415/504/459 414/499/459 429/525/459 430/528/459
f 423/505/460 422/503/460 437/527/460 438/529/460
f 416/506/461 415/504/461 430/528/461 431/530/461
f 424/507/462 423/505/462 438/529/462 439/531/462
f 417/508/463 416/506/463 431/530/463 432/515/463
f 425/509/464 424/507/464 439/531/464 440/517/464
f 437/527/465 436/523/465 451/532/465 452/533/465
f 430/528/466 429/525/466 444/534/466 445/535/466
f 438/529/467 437/527/467 452/533/467 453/536/467
f 431/530/468 430/528/468 445/535/468 446/537/468
f 439/531/469 438/529/469 453/536/469 454/538/469
f 432/515/470 431/530/470 446/537/470 447/539/470
f 440/517/471 439/531/471 454/538/471 455/540/471
f 433/516/472 432/515/472 447/539/472 448/541/472
f 441/518/473 440/517/473 455/540/473 456/542/473
f 434/519/474 433/516/474 448/541/474 449/543/474
f 442/520/475 441/518/475 456/542/475 457/544/475
f 435/521/476 434/519/476 449/543/476 450/545/476
f 443/522/477 442/520/477 457/544/477 458/546/477
f 436/523/478 435/521/478 450/545/478 451/532/478
f 429/525/479 1/547/479 444/534/479
f 8/548/480 443/522/480 458/546/480
f 456/542/481 455/540/481 470/549/481 471/550/481
f 449/543/482 448/541/482 463/551/482 464/552/482
f 457/544/483 456/542/483 471/550/483 472/553/483
f 450/545/484 449/543/484 464/552/484 465/554/484
f 458/546/485 457/544/485 472/553/485 473/555/485
f 451/532/486 450/545/486 465/554/486 466/556/486
f 444/534/487 1/557/487 459/558/487
f 8/559/488 458/546/488 473/555/488
f 452/533/489 451/532/489 466/556/489 467/560/489
f 445/535/490 444/534/490 459/558/490 460/561/490
f 453/536/491 452/533/491 467/560/491 468/562/491
f 446/537/492 445/535/492 460/561/492 461/563/492
f 454/538/493 453/536/493 468/562/493 469/564/493
f 447/539/494 446/537/494 461/563/494 462/565/494
f 455/540/495 454/538/495 469/564/495 470/549/495
f 448/541/496 447/539/496 462/565/496 463/551/496
f 460/561/497 459/558/497 474/6/497 475/5/497
f 468/562/498 467/560/498 6/1/498 478/9/498
f 461/563/499 460/561/499 475/5/499 2/11/499
f 469/564/500 468/562/500 478/9/500 7/13/500
f 462/565/501 461/563/501 2/11/501 476/15/501
f 470/549/502 469/564/502 7/13/502 479/17/502
f 463/551/503 462/565/503 476/15/503 3/19/503
f 471/550/504 470/549/504 479/17/504 480/21/504
f 464/552/505 463/551/505 3/19/505 477/23/505
f 472/553/506 471/550/506 480/21/506 481/25/506
f 465/554/507 464/552/507 477/23/507 4/27/507
f 473/555/508 472/553/508 481/25/508 482/29/508
f 466/556/509 465/554/509 4/27/509 5/2/509
f 459/558/510 1/566/510 474/6/510
f 8/567/511 473/555/511 482/29/511
f 467/560/512 466/556/512 5/2/512 6/1/512
f 164/195/513 501/182/513 163/209/513
f 499/161/514 133/173/514 501/182/514
f 148/181/515 133/173/515 147/178/515
f 88/112/516 87/109/516 103/122/516
f 497/149/517 495/113/517 103/122/517
f 74/88/518 73/85/518 495/113/518
f 88/112/519 73/85/519 87/109/519
f 148/181/520 147/178/520 163/209/520
f 77/96/521 76/92/521 92/105/521
f 167/203/522 152/101/522 166/194/522
f 485/92/521 483/117/521 484/105/521
f 484/105/523 483/117/523 486/130/523 487/134/523
f 487/134/524 486/130/524 488/154/524 489/140/524
f 489/140/525 488/154/525 490/158/525 491/102/525
f 491/102/526 490/158/526 492/190/526 493/101/526
f 493/101/522 492/190/522 494/194/522
f 76/92/527 91/117/527 483/117/527 485/92/527
f 122/140/528 107/134/528 487/134/528 489/140/528
f 92/105/529 76/92/529 485/92/529 484/105/529
f 91/117/530 106/130/530 486/130/530 483/117/530
f 137/102/531 122/140/531 489/140/531 491/102/531
f 136/158/532 151/190/532 492/190/532 490/158/532
f 89/125/533 90/124/533 496/115/533 495/113/533
f 105/127/534 104/126/534 497/149/534 498/129/534
f 104/126/535 89/125/535 495/113/535 497/149/535
f 90/124/536 105/127/536 498/129/536 496/115/536
f 134/185/537 135/184/537 500/162/537 499/161/537
f 150/187/538 149/186/538 501/182/538 502/189/538
f 149/186/539 134/185/539 499/161/539 501/182/539
f 135/184/540 150/187/540 502/189/540 500/162/540
